<?xml version="1.0" encoding="UTF-8" standalone="no"?>
<!-- Generator: Adobe Illustrator 21.1.0, SVG Export Plug-In . SVG Version: 6.00 Build 0)  -->

<svg
   xmlns:dc="http://purl.org/dc/elements/1.1/"
   xmlns:cc="http://creativecommons.org/ns#"
   xmlns:rdf="http://www.w3.org/1999/02/22-rdf-syntax-ns#"
   xmlns:svg="http://www.w3.org/2000/svg"
   xmlns="http://www.w3.org/2000/svg"
   xmlns:sodipodi="http://sodipodi.sourceforge.net/DTD/sodipodi-0.dtd"
   xmlns:inkscape="http://www.inkscape.org/namespaces/inkscape"
   version="1.1"
   id="Layer_1"
   x="0px"
   y="0px"
   viewBox="0 0 50 50"
   style="enable-background:new 0 0 50 50;"
   xml:space="preserve"
   width="50px"
   height="50px"
   sodipodi:docname="icons8-github.svg"
   inkscape:version="0.92.3 (2405546, 2018-03-11)"><metadata
   id="metadata23"><rdf:RDF><cc:Work
       rdf:about=""><dc:format>image/svg+xml</dc:format><dc:type
         rdf:resource="http://purl.org/dc/dcmitype/StillImage" /></cc:Work></rdf:RDF></metadata><defs
   id="defs21" /><sodipodi:namedview
   pagecolor="#ffffff"
   bordercolor="#666666"
   borderopacity="1"
   objecttolerance="10"
   gridtolerance="10"
   guidetolerance="10"
   inkscape:pageopacity="0"
   inkscape:pageshadow="2"
   inkscape:window-width="1440"
   inkscape:window-height="837"
   id="namedview19"
   showgrid="false"
   inkscape:zoom="4.72"
   inkscape:cx="25"
   inkscape:cy="25"
   inkscape:window-x="-8"
   inkscape:window-y="-8"
   inkscape:window-maximized="1"
   inkscape:current-layer="Layer_1" />
<path
   style="fill:none;stroke:#ffffff;stroke-width:2;stroke-miterlimit:10;stroke-opacity:1"
   d="M3,25c0,12.148,9.852,22,22,22s22-9.852,22-22  S37.148,3,25,3S3,12.852,3,25z"
   id="path2" />
<path
   style="fill:none;stroke:#ffffff;stroke-linecap:round;stroke-linejoin:round;stroke-miterlimit:10;stroke-opacity:1"
   d="M38,25.655  c4.51-0.282,7.58-0.017,9,0.163"
   id="path4" />
<path
   style="fill:none;stroke:#ffffff;stroke-linecap:round;stroke-linejoin:round;stroke-miterlimit:10;stroke-opacity:1"
   d="M37.401,27.519  c5.169,0,8.498,0.675,9.699,0.967"
   id="path6" />
<path
   style="fill:none;stroke:#ffffff;stroke-linecap:round;stroke-linejoin:round;stroke-miterlimit:10;stroke-opacity:1"
   d="M3,25.802  c1.42-0.181,4.49-0.445,9-0.163"
   id="path8" />
<path
   style="fill:none;stroke:#ffffff;stroke-linecap:round;stroke-linejoin:round;stroke-miterlimit:10;stroke-opacity:1"
   d="M2.999,28.476  c1.199-0.292,4.528-0.968,9.701-0.968"
   id="path10" />
<path
   style="fill:none;stroke:#ffffff;stroke-width:2;stroke-miterlimit:10;stroke-opacity:1"
   d="M36.3,18.6c0.5-1.6,1.3-5.2-0.2-6.6  c-2.7,0-4.6,1.3-5.5,2.1C29,13.4,27.1,13,25,13s-4,0.4-5.7,1.1c-0.9-0.8-2.8-2.1-5.5-2.1c-1.4,1.3-0.7,4.9-0.2,6.6  c-1.1,1.5-1.7,3.3-1.7,5c0,5.5,4.2,9.4,13,9.4s13-3.9,13-9.4C38,21.8,37.4,20.1,36.3,18.6z"
   id="path12" />
<path
   style="fill:none;stroke:#ffffff;stroke-width:2;stroke-miterlimit:10;stroke-opacity:1"
   d="M19,39c0,0-3,0-3.6,0c-1.5,0-2.8-0.6-3.4-1.8  c-0.7-1.3-1-3.5-2.8-4.7C8.9,32.3,9.1,32,9.7,32c0.6,0.1,1.9,0.9,2.7,2c0.9,1.1,1.8,2,3.4,2s3.8,0.1,4.5-0.7"
   id="path14" />
<path
   style="fill:none;stroke:#ffffff;stroke-width:2;stroke-miterlimit:10;stroke-opacity:1"
   d="M31,45.7v-6.1c0-2.7-1.9-6.5-4.5-6.5h-2.8  c-2.6,0-4.7,3.8-4.7,6.5V46"
   id="path16" />
</svg>